# xmcd
#
# Track frame offsets: 
#        182
#        13032
#        26137
#        39092
#        51387
#        63735
#        77422
#        89452
#        101737
#        114605
#        126645
#        139317
#        153197
#        165007
#        175857
#        188422
#        201922
#        214975
#        227982
#        241867
#        255755
#        269592
#
# Disc length: 3768 seconds
#
# Revision: 2
# Processed by: cddbd v1.5.1PL0 Copyright (c) Steve Scherf et al.
# Submitted via: ExactAudioCopy v0.95a5
#
DISCID=2e0eb616
DTITLE=T-Bone Walker - Low Down Blues
DYEAR=1986
DGENRE=Blues
TTITLE0=Don't Leave Me Baby
TTITLE1=I'm Gonna Find My Baby
TTITLE2=It's A Low Down Dirty Deal
TTITLE3=I Know Your Wig Has Gone
TTITLE4=T-Bone Jumps Again
TTITLE5=Call It Stormy Monday
TTITLE6=She's My Old Time Used To Be
TTITLE7=Midnight Blues
TTITLE8=Long Skirt Baby Blues
TTITLE9=Too Much Trouble Blues
TTITLE10=Hypin' Women Blues
TTITLE11=The Natural Blues
TTITLE12=That's Better For Me
TTITLE13=Lonesome Woman Blues
TTITLE14=Inspiration Blues
TTITLE15=T-Bone Shuffle
TTITLE16=That Old Feeling Is Gone
TTITLE17=I Wish You Were Mine
TTITLE18=She's The No Sleepin'est Woman
TTITLE19=Plain Old Downhome Blues
TTITLE20=Go Back To The One You Love
TTITLE21=You're My Best Poker Hand
EXTD=CD Charly 7\n\nOriginal Black and White Recordings (Licensed from
EXTD=Capitol Records]\n\n[Submitted 5/30/97]\n[J. Rockwall McCoy:   J
EXTD=mccoy@efn.org]
EXTT0=
EXTT1=
EXTT2=
EXTT3=
EXTT4=
EXTT5=
EXTT6=
EXTT7=
EXTT8=
EXTT9=
EXTT10=
EXTT11=
EXTT12=
EXTT13=
EXTT14=
EXTT15=
EXTT16=
EXTT17=
EXTT18=
EXTT19=
EXTT20=
EXTT21=
PLAYORDER=
